<svg width="379" height="369" viewBox="0 0 379 369" fill="none" xmlns="http://www.w3.org/2000/svg">
<rect x="124" width="12" height="58" rx="4" fill="#8E8E8E"/>
<rect x="186" width="12" height="58" rx="4" fill="#8E8E8E"/>
<rect x="248" width="12" height="58" rx="4" fill="#8E8E8E"/>
<rect x="118" y="311" width="12" height="58" rx="4" fill="#8E8E8E"/>
<rect x="180" y="311" width="12" height="58" rx="4" fill="#8E8E8E"/>
<rect x="242" y="311" width="12" height="58" rx="4" fill="#8E8E8E"/>
<rect x="321" y="250" width="12" height="58" rx="4" transform="rotate(-90 321 250)" fill="#8E8E8E"/>
<rect x="321" y="188" width="12" height="58" rx="4" transform="rotate(-90 321 188)" fill="#8E8E8E"/>
<rect x="321" y="126" width="12" height="58" rx="4" transform="rotate(-90 321 126)" fill="#8E8E8E"/>
<rect y="244" width="12" height="58" rx="4" transform="rotate(-90 0 244)" fill="#8E8E8E"/>
<rect y="182" width="12" height="58" rx="4" transform="rotate(-90 0 182)" fill="#8E8E8E"/>
<rect y="120" width="12" height="58" rx="4" transform="rotate(-90 0 120)" fill="#8E8E8E"/>
<rect x="52" y="43" width="280" height="280" rx="20" fill="#D9D9D9"/>
<rect x="91" y="82" width="202" height="202" rx="20" fill="#AFAFAF"/>
</svg>
