<svg width="1443" height="1274" viewBox="0 0 1443 1274" fill="none" xmlns="http://www.w3.org/2000/svg">
<g filter="url(#filter0_f_7_3)">
<path d="M426 531C552.8 403 379.167 81.3333 276.5 -63.5C700.167 -206.5 1469 -411.2 1155 -86C762.5 320.5 944 491 988 531C1035.36 574.056 1210 775 1217.5 1028C1225 1281 174.5 1266.5 189 1012C203.5 757.5 267.5 691 426 531Z" fill="#CCC630"/>
</g>
<g filter="url(#filter1_n_7_3)">
<path d="M426 531C552.8 403 379.167 81.3333 276.5 -63.5C700.167 -206.5 1469 -411.2 1155 -86C762.5 320.5 944 491 988 531C1035.36 574.056 1210 775 1217.5 1028C1225 1281 174.5 1266.5 189 1012C203.5 757.5 267.5 691 426 531Z" fill="#CCC630"/>
</g>
<path d="M482.797 518.644C584.279 390.668 445.315 69.0616 363.148 -75.7445C702.221 -218.718 1317.54 -423.379 1066.24 -98.2403C752.109 308.183 897.368 478.651 932.583 518.644C970.488 561.692 1110.26 762.598 1116.26 1015.55C1122.26 1268.5 281.514 1254.01 293.119 999.553C304.724 745.101 355.945 678.613 482.797 518.644Z" fill="url(#paint0_linear_7_3)"/>
<g filter="url(#filter2_ddn_7_3)">
<path d="M4 1104L246.5 -32H1144.5L1439 1104H4Z" fill="url(#paint1_linear_7_3)" shape-rendering="crispEdges"/>
</g>
<defs>
<filter id="filter0_f_7_3" x="125.651" y="-322.992" width="1165.97" height="1596.68" filterUnits="userSpaceOnUse" color-interpolation-filters="sRGB">
<feFlood flood-opacity="0" result="BackgroundImageFix"/>
<feBlend mode="normal" in="SourceGraphic" in2="BackgroundImageFix" result="shape"/>
<feGaussianBlur stdDeviation="31.6" result="effect1_foregroundBlur_7_3"/>
</filter>
<filter id="filter1_n_7_3" x="188.851" y="-259.792" width="1039.57" height="1470.28" filterUnits="userSpaceOnUse" color-interpolation-filters="sRGB">
<feFlood flood-opacity="0" result="BackgroundImageFix"/>
<feBlend mode="normal" in="SourceGraphic" in2="BackgroundImageFix" result="shape"/>
<feTurbulence type="fractalNoise" baseFrequency="2 2" stitchTiles="stitch" numOctaves="3" result="noise" seed="7292" />
<feColorMatrix in="noise" type="luminanceToAlpha" result="alphaNoise" />
<feComponentTransfer in="alphaNoise" result="coloredNoise1">
<feFuncA type="discrete" tableValues="1 1 1 1 1 1 1 1 1 1 1 1 1 1 1 1 1 1 1 1 1 1 1 1 1 1 1 1 1 1 1 1 1 1 1 1 1 1 1 1 1 1 1 1 1 1 1 1 1 1 1 0 0 0 0 0 0 0 0 0 0 0 0 0 0 0 0 0 0 0 0 0 0 0 0 0 0 0 0 0 0 0 0 0 0 0 0 0 0 0 0 0 0 0 0 0 0 0 0 0 "/>
</feComponentTransfer>
<feComposite operator="in" in2="shape" in="coloredNoise1" result="noise1Clipped" />
<feFlood flood-color="rgba(0, 0, 0, 0.25)" result="color1Flood" />
<feComposite operator="in" in2="noise1Clipped" in="color1Flood" result="color1" />
<feMerge result="effect1_noise_7_3">
<feMergeNode in="shape" />
<feMergeNode in="color1" />
</feMerge>
</filter>
<filter id="filter2_ddn_7_3" x="0" y="-32" width="1443" height="1144" filterUnits="userSpaceOnUse" color-interpolation-filters="sRGB">
<feFlood flood-opacity="0" result="BackgroundImageFix"/>
<feColorMatrix in="SourceAlpha" type="matrix" values="0 0 0 0 0 0 0 0 0 0 0 0 0 0 0 0 0 0 127 0" result="hardAlpha"/>
<feOffset dy="4"/>
<feGaussianBlur stdDeviation="2"/>
<feComposite in2="hardAlpha" operator="out"/>
<feColorMatrix type="matrix" values="0 0 0 0 0 0 0 0 0 0 0 0 0 0 0 0 0 0 0.25 0"/>
<feBlend mode="normal" in2="BackgroundImageFix" result="effect1_dropShadow_7_3"/>
<feColorMatrix in="SourceAlpha" type="matrix" values="0 0 0 0 0 0 0 0 0 0 0 0 0 0 0 0 0 0 127 0" result="hardAlpha"/>
<feOffset dy="4"/>
<feGaussianBlur stdDeviation="2"/>
<feComposite in2="hardAlpha" operator="out"/>
<feColorMatrix type="matrix" values="0 0 0 0 0 0 0 0 0 0 0 0 0 0 0 0 0 0 0.25 0"/>
<feBlend mode="normal" in2="effect1_dropShadow_7_3" result="effect2_dropShadow_7_3"/>
<feBlend mode="normal" in="SourceGraphic" in2="BackgroundImageFix" result="shape"/>
<feTurbulence type="fractalNoise" baseFrequency="0.625 0.625" stitchTiles="stitch" numOctaves="3" result="noise" seed="9151" />
<feColorMatrix in="noise" type="luminanceToAlpha" result="alphaNoise" />
<feComponentTransfer in="alphaNoise" result="coloredNoise1">
<feFuncA type="discrete" tableValues="1 1 1 1 1 1 1 1 1 1 1 1 1 1 1 1 1 1 1 1 1 1 1 1 1 1 1 1 1 1 1 1 1 1 1 1 1 1 1 1 1 1 1 1 1 1 1 1 1 1 1 0 0 0 0 0 0 0 0 0 0 0 0 0 0 0 0 0 0 0 0 0 0 0 0 0 0 0 0 0 0 0 0 0 0 0 0 0 0 0 0 0 0 0 0 0 0 0 0 0 "/>
</feComponentTransfer>
<feComposite operator="in" in2="shape" in="coloredNoise1" result="noise1Clipped" />
<feFlood flood-color="rgba(0, 0, 0, 0.39)" result="color1Flood" />
<feComposite operator="in" in2="noise1Clipped" in="color1Flood" result="color1" />
<feMerge result="effect3_noise_7_3">
<feMergeNode in="shape" />
<feMergeNode in="color1" />
</feMerge>
<feBlend mode="normal" in="effect3_noise_7_3" in2="effect2_dropShadow_7_3" result="effect3_noise_7_3"/>
</filter>
<linearGradient id="paint0_linear_7_3" x1="709" y1="-272" x2="709" y2="1198" gradientUnits="userSpaceOnUse">
<stop offset="0.195722" stop-color="#9A9500"/>
<stop offset="0.625627" stop-color="#FFF825"/>
</linearGradient>
<linearGradient id="paint1_linear_7_3" x1="678.5" y1="-32.5058" x2="722.5" y2="1103.96" gradientUnits="userSpaceOnUse">
<stop stop-color="#D9D9D9" stop-opacity="0.38"/>
<stop offset="1" stop-opacity="0"/>
</linearGradient>
</defs>
</svg>
